<svg width="26" height="26" viewBox="0 0 26 26" fill="none" xmlns="http://www.w3.org/2000/svg">
<path d="M26 24.8511L17.1883 16.0393C18.6274 14.3399 19.5 12.1463 19.5 9.75001C19.5 4.37353 15.1264 0 9.75001 0C4.37357 0 0 4.37353 0 9.75001C0 15.1265 4.37353 19.5 9.75001 19.5C12.1463 19.5 14.3399 18.6274 16.0393 17.1883L24.8511 26L26 24.8511ZM9.75001 17.875C5.27015 17.875 1.62502 14.2299 1.62502 9.75001C1.62502 5.27015 5.27015 1.62502 9.75001 1.62502C14.2299 1.62502 17.875 5.27015 17.875 9.75001C17.875 14.2299 14.2299 17.875 9.75001 17.875Z" fill="black"/>
</svg>
